<svg width="896" height="512" xmlns="http://www.w3.org/2000/svg">
 <g>
  <title>Layer 1</title>
  <path d="m 151.43258,8.7863685 q -7.87381,6.7489805 -14.62279,12.3731315 0,11.248301 0,23.621433 8.99864,35.994564 13.49796,76.488447 -4.49932,7.87381 -11.2483,13.49796 -16.87245,1.12483 -29.24559,-3.37449 -6.74898,-4.49932 -10.123467,-11.2483 -7.87381,-2.24966 -15.747621,0 -6.748981,1.12483 -11.248302,5.62415 l -16.872451,16.87245 q -11.248302,2.24966 -19.122113,8.99864 -6.74898,6.74899 -6.74898,17.99729 2.24966,3.37449 4.49932,7.87381 2.24966,4.49932 2.24966,12.37313 -16.872452,31.49524 -30.3704131,65.24015 -2.2496602,23.62143 0,47.24286 6.7489811,10.12347 15.7476221,20.24694 10.123471,4.49932 20.246942,13.49797 25.871093,4.49932 53.991846,8.99864 23.621437,-5.62415 50.617357,-5.62415 3.37449,2.24966 6.74898,5.62415 0,25.87109 0,55.11667 1.12483,19.12211 5.62415,38.24423 v 61.86565 q 2.24966,5.62415 8.99864,8.99864 10.12347,0 19.12211,-3.37449 3.37449,2.24966 10.12347,2.24966 7.87382,-13.49796 17.99729,-24.74626 5.62415,-34.86973 7.87381,-70.8643 -5.62415,-40.49388 -5.62415,-82.1126 l 7.87381,-7.87381 h 16.87245 q 21.37177,-8.99864 44.9932,-13.49796 14.6228,-7.87381 30.37042,-15.74762 3.37449,-1.12483 8.99864,-1.12483 11.2483,-10.12347 23.62143,-22.4966 2.24966,-6.74898 6.74898,-12.37313 V 230.3779 q 4.49932,-14.62279 6.74898,-30.37041 4.49932,-11.2483 10.12347,-20.24694 2.24966,-17.99728 2.24966,-37.1194 -5.62415,-7.87381 -7.87381,-15.74762 -6.74898,-6.74898 -13.49796,-13.49796 -11.2483,-6.74898 -20.24694,-10.12347 -46.11804,-4.499321 -92.23607,0 -10.12347,4.49932 -22.4966,4.49932 -6.74898,-2.24966 -10.12347,-7.873811 2.24966,-23.621433 2.24966,-46.118035 -5.62415,-8.998641 -4.49932,-19.122113 Q 203.17477,22.28433 195.30095,13.285689 187.42714,3.1622179 178.4285,2.0373877 164.93054,5.4118781 151.43258,8.7863685 Z M 136.80979,175.26123 q 7.87381,2.24966 11.2483,12.37313 -1.12483,39.36905 1.12483,80.98777 4.49932,6.74898 3.37449,15.74762 -5.62415,6.74898 -12.37313,11.2483 -17.99728,1.12483 -33.74491,5.62415 -19.122108,0 -37.11939,-1.12483 -6.748981,-4.49932 -11.248301,-7.87381 -1.12483,-14.62279 1.12483,-29.24558 16.872452,-30.37042 28.120753,-62.99049 4.499321,-7.87381 11.248301,-13.49796 14.622787,-3.37449 29.245587,-5.62415 4.49932,-3.37449 8.99864,-5.62415 z M 283.0377,146.01564 q 8.99865,-1.12483 17.99729,2.24966 4.49932,2.24966 8.99864,7.87382 2.24966,8.99864 1.12483,20.24694 -6.74898,11.2483 -10.12347,22.4966 -4.49932,25.87109 -10.12348,52.86702 -24.74626,11.2483 -47.24286,24.74626 -10.12347,2.24966 -19.12211,4.49932 l -10.12347,-10.12347 q 0,-44.99321 3.37449,-84.36226 -3.37449,-13.49796 -6.74898,-23.62143 4.49932,-6.74898 12.37313,-11.24831 29.24558,-3.37449 59.61599,-5.62415 z M 638.74,93.24 766.76,221.26 488.77,499.25 374.63,511.85 c -15.28,1.69 -28.19,-11.23 -26.49,-26.51 l 12.7,-114.22 z M 845.94,74.18 785.83,14.07 c -18.75,-18.75 -49.16,-18.75 -67.91,0 l -56.55,56.55 128.02,128.02 56.55,-56.55 c 18.75,-18.76 18.75,-49.16 0,-67.91 z" id="svg_1" stroke-width="1.5" stroke="#000" fill="#000"/>
 </g>
</svg>